M48
; DRILL file {KiCad (7.0.0)} date Sat Mar 18 20:28:39 2023
; FORMAT={-:-/ absolute / inch / decimal}
; #@! TF.CreationDate,2023-03-18T20:28:39-04:00
; #@! TF.GenerationSoftware,Kicad,Pcbnew,(7.0.0)
; #@! TF.FileFunction,MixedPlating,1,2
FMAT,2
INCH
; #@! TA.AperFunction,Plated,PTH,ViaDrill
T1C0.0157
; #@! TA.AperFunction,Plated,PTH,ComponentDrill
T2C0.0236
; #@! TA.AperFunction,Plated,PTH,ComponentDrill
T3C0.0362
; #@! TA.AperFunction,Plated,PTH,ComponentDrill
T4C0.0550
; #@! TA.AperFunction,Plated,PTH,ComponentDrill
T5C0.0917
; #@! TA.AperFunction,NonPlated,NPTH,ComponentDrill
T6C0.0550
%
G90
G05
T1
X3.46Y-4.02
X3.64Y-3.8
X3.645Y-4.22
X3.7Y-3.64
X3.835Y-3.735
X3.89Y-4.24
X4.26Y-4.0725
X4.2994Y-4.035
X4.385Y-3.885
X4.39Y-3.705
X4.39Y-3.805
X4.39Y-4.195
X4.39Y-4.295
X4.53Y-3.705
X4.53Y-4.295
T2
X3.43Y-4.2617
X3.43Y-4.3404
T3
X3.1802Y-3.9508
X3.1802Y-4.0492
X3.259Y-3.9508
X3.259Y-4.0492
T4
X4.0835Y-3.8033
X4.0835Y-4.1967
X4.1819Y-4.0
X4.182Y-3.7048
X4.182Y-4.2952
T5
X3.0735Y-3.763
X3.0735Y-4.237
T6
X4.5755Y-3.8031
X4.5755Y-4.1969
T0
M30
