%TF.GenerationSoftware,KiCad,Pcbnew,(7.0.0)*%
%TF.CreationDate,2023-03-18T20:28:04-04:00*%
%TF.ProjectId,nabu-interface,6e616275-2d69-46e7-9465-72666163652e,rev?*%
%TF.SameCoordinates,Original*%
%TF.FileFunction,Soldermask,Top*%
%TF.FilePolarity,Negative*%
%FSLAX46Y46*%
G04 Gerber Fmt 4.6, Leading zero omitted, Abs format (unit mm)*
G04 Created by KiCad (PCBNEW (7.0.0)) date 2023-03-18 20:28:04*
%MOMM*%
%LPD*%
G01*
G04 APERTURE LIST*
G04 Aperture macros list*
%AMRoundRect*
0 Rectangle with rounded corners*
0 $1 Rounding radius*
0 $2 $3 $4 $5 $6 $7 $8 $9 X,Y pos of 4 corners*
0 Add a 4 corners polygon primitive as box body*
4,1,4,$2,$3,$4,$5,$6,$7,$8,$9,$2,$3,0*
0 Add four circle primitives for the rounded corners*
1,1,$1+$1,$2,$3*
1,1,$1+$1,$4,$5*
1,1,$1+$1,$6,$7*
1,1,$1+$1,$8,$9*
0 Add four rect primitives between the rounded corners*
20,1,$1+$1,$2,$3,$4,$5,0*
20,1,$1+$1,$4,$5,$6,$7,0*
20,1,$1+$1,$6,$7,$8,$9,0*
20,1,$1+$1,$8,$9,$2,$3,0*%
G04 Aperture macros list end*
%ADD10RoundRect,0.237500X-0.250000X-0.237500X0.250000X-0.237500X0.250000X0.237500X-0.250000X0.237500X0*%
%ADD11RoundRect,0.237500X0.287500X0.237500X-0.287500X0.237500X-0.287500X-0.237500X0.287500X-0.237500X0*%
%ADD12RoundRect,0.237500X0.237500X-0.250000X0.237500X0.250000X-0.237500X0.250000X-0.237500X-0.250000X0*%
%ADD13RoundRect,0.237500X-0.237500X0.250000X-0.237500X-0.250000X0.237500X-0.250000X0.237500X0.250000X0*%
%ADD14RoundRect,0.237500X-0.287500X-0.237500X0.287500X-0.237500X0.287500X0.237500X-0.287500X0.237500X0*%
%ADD15RoundRect,0.150000X-0.825000X-0.150000X0.825000X-0.150000X0.825000X0.150000X-0.825000X0.150000X0*%
%ADD16RoundRect,0.150000X-0.675000X-0.150000X0.675000X-0.150000X0.675000X0.150000X-0.675000X0.150000X0*%
%ADD17C,3.500000*%
%ADD18C,1.700000*%
%ADD19R,1.700000X1.700000*%
%ADD20C,2.499360*%
%ADD21C,1.200000*%
%ADD22R,1.200000X1.200000*%
%ADD23RoundRect,0.237500X-0.300000X-0.237500X0.300000X-0.237500X0.300000X0.237500X-0.300000X0.237500X0*%
%ADD24RoundRect,0.237500X-0.237500X0.300000X-0.237500X-0.300000X0.237500X-0.300000X0.237500X0.300000X0*%
%ADD25RoundRect,0.237500X0.300000X0.237500X-0.300000X0.237500X-0.300000X-0.237500X0.300000X-0.237500X0*%
G04 APERTURE END LIST*
D10*
%TO.C,R5*%
X96496500Y-109093000D03*
X98321500Y-109093000D03*
%TD*%
D11*
%TO.C,D5*%
X98284000Y-110744000D03*
X96534000Y-110744000D03*
%TD*%
D12*
%TO.C,R4*%
X87757000Y-99163500D03*
X87757000Y-100988500D03*
%TD*%
D13*
%TO.C,R3*%
X87757000Y-95607500D03*
X87757000Y-97432500D03*
%TD*%
D11*
%TO.C,D4*%
X88632000Y-92456000D03*
X86882000Y-92456000D03*
%TD*%
%TO.C,D3*%
X98298000Y-92456000D03*
X96548000Y-92456000D03*
%TD*%
D14*
%TO.C,D2*%
X96534000Y-93980000D03*
X98284000Y-93980000D03*
%TD*%
%TO.C,D1*%
X88632000Y-93980000D03*
X86882000Y-93980000D03*
%TD*%
D15*
%TO.C,U1*%
X90108000Y-96393000D03*
X90108000Y-97663000D03*
X90108000Y-98933000D03*
X90108000Y-100203000D03*
X95058000Y-100203000D03*
X95058000Y-98933000D03*
X95058000Y-97663000D03*
X95058000Y-96393000D03*
%TD*%
D16*
%TO.C,U2*%
X89958000Y-102997000D03*
X89958000Y-104267000D03*
X89958000Y-105537000D03*
X89958000Y-106807000D03*
X95208000Y-106807000D03*
X95208000Y-105537000D03*
X95208000Y-104267000D03*
X95208000Y-102997000D03*
%TD*%
D10*
%TO.C,R2*%
X78081500Y-110617000D03*
X79906500Y-110617000D03*
%TD*%
D13*
%TO.C,R1*%
X97409000Y-97940500D03*
X97409000Y-96115500D03*
%TD*%
D17*
%TO.C,J2*%
X78067500Y-95580000D03*
X78067500Y-107620000D03*
D18*
X80777500Y-102850000D03*
X80777500Y-100350000D03*
X82777500Y-100350000D03*
D19*
X82777499Y-102849999D03*
%TD*%
D20*
%TO.C,J1*%
X106222800Y-109098080D03*
X103720900Y-96603820D03*
X106220260Y-101600000D03*
X106222800Y-94101920D03*
X103720900Y-106596180D03*
X116217700Y-96598740D03*
X116217700Y-106601260D03*
%TD*%
D21*
%TO.C,C5*%
X87122000Y-110247401D03*
D22*
X87121999Y-108247400D03*
%TD*%
D23*
%TO.C,C4*%
X93445500Y-94488000D03*
X91720500Y-94488000D03*
%TD*%
D24*
%TO.C,C3*%
X97409000Y-104039500D03*
X97409000Y-105764500D03*
%TD*%
D25*
%TO.C,C2*%
X91720500Y-108712000D03*
X93445500Y-108712000D03*
%TD*%
D23*
%TO.C,C1*%
X78131500Y-92583000D03*
X79856500Y-92583000D03*
%TD*%
M02*
