%TF.GenerationSoftware,KiCad,Pcbnew,(7.0.0)*%
%TF.CreationDate,2023-03-18T20:28:04-04:00*%
%TF.ProjectId,nabu-interface,6e616275-2d69-46e7-9465-72666163652e,rev?*%
%TF.SameCoordinates,Original*%
%TF.FileFunction,Legend,Bot*%
%TF.FilePolarity,Positive*%
%FSLAX46Y46*%
G04 Gerber Fmt 4.6, Leading zero omitted, Abs format (unit mm)*
G04 Created by KiCad (PCBNEW (7.0.0)) date 2023-03-18 20:28:04*
%MOMM*%
%LPD*%
G01*
G04 APERTURE LIST*
G04 Aperture macros list*
%AMFreePoly0*
4,1,19,0.500000,-0.750000,0.000000,-0.750000,0.000000,-0.744911,-0.071157,-0.744911,-0.207708,-0.704816,-0.327430,-0.627875,-0.420627,-0.520320,-0.479746,-0.390866,-0.500000,-0.250000,-0.500000,0.250000,-0.479746,0.390866,-0.420627,0.520320,-0.327430,0.627875,-0.207708,0.704816,-0.071157,0.744911,0.000000,0.744911,0.000000,0.750000,0.500000,0.750000,0.500000,-0.750000,0.500000,-0.750000,
$1*%
%AMFreePoly1*
4,1,19,0.000000,0.744911,0.071157,0.744911,0.207708,0.704816,0.327430,0.627875,0.420627,0.520320,0.479746,0.390866,0.500000,0.250000,0.500000,-0.250000,0.479746,-0.390866,0.420627,-0.520320,0.327430,-0.627875,0.207708,-0.704816,0.071157,-0.744911,0.000000,-0.744911,0.000000,-0.750000,-0.500000,-0.750000,-0.500000,0.750000,0.000000,0.750000,0.000000,0.744911,0.000000,0.744911,
$1*%
G04 Aperture macros list end*
%ADD10C,0.150000*%
%ADD11C,0.010000*%
%ADD12C,0.120000*%
%ADD13C,2.499360*%
%ADD14FreePoly0,0.000000*%
%ADD15FreePoly1,0.000000*%
%ADD16FreePoly1,180.000000*%
%ADD17FreePoly0,180.000000*%
%ADD18C,3.500000*%
%ADD19C,1.700000*%
%ADD20R,1.700000X1.700000*%
%ADD21C,1.200000*%
%ADD22R,1.200000X1.200000*%
G04 APERTURE END LIST*
D10*
X99730619Y-100347380D02*
X99730619Y-99347380D01*
X99730619Y-99347380D02*
X99159191Y-100347380D01*
X99159191Y-100347380D02*
X99159191Y-99347380D01*
X98730619Y-100061666D02*
X98254429Y-100061666D01*
X98825857Y-100347380D02*
X98492524Y-99347380D01*
X98492524Y-99347380D02*
X98159191Y-100347380D01*
X97492524Y-99823571D02*
X97349667Y-99871190D01*
X97349667Y-99871190D02*
X97302048Y-99918809D01*
X97302048Y-99918809D02*
X97254429Y-100014047D01*
X97254429Y-100014047D02*
X97254429Y-100156904D01*
X97254429Y-100156904D02*
X97302048Y-100252142D01*
X97302048Y-100252142D02*
X97349667Y-100299761D01*
X97349667Y-100299761D02*
X97444905Y-100347380D01*
X97444905Y-100347380D02*
X97825857Y-100347380D01*
X97825857Y-100347380D02*
X97825857Y-99347380D01*
X97825857Y-99347380D02*
X97492524Y-99347380D01*
X97492524Y-99347380D02*
X97397286Y-99395000D01*
X97397286Y-99395000D02*
X97349667Y-99442619D01*
X97349667Y-99442619D02*
X97302048Y-99537857D01*
X97302048Y-99537857D02*
X97302048Y-99633095D01*
X97302048Y-99633095D02*
X97349667Y-99728333D01*
X97349667Y-99728333D02*
X97397286Y-99775952D01*
X97397286Y-99775952D02*
X97492524Y-99823571D01*
X97492524Y-99823571D02*
X97825857Y-99823571D01*
X96825857Y-99347380D02*
X96825857Y-100156904D01*
X96825857Y-100156904D02*
X96778238Y-100252142D01*
X96778238Y-100252142D02*
X96730619Y-100299761D01*
X96730619Y-100299761D02*
X96635381Y-100347380D01*
X96635381Y-100347380D02*
X96444905Y-100347380D01*
X96444905Y-100347380D02*
X96349667Y-100299761D01*
X96349667Y-100299761D02*
X96302048Y-100252142D01*
X96302048Y-100252142D02*
X96254429Y-100156904D01*
X96254429Y-100156904D02*
X96254429Y-99347380D01*
X95178238Y-99347380D02*
X95178238Y-100156904D01*
X95178238Y-100156904D02*
X95130619Y-100252142D01*
X95130619Y-100252142D02*
X95083000Y-100299761D01*
X95083000Y-100299761D02*
X94987762Y-100347380D01*
X94987762Y-100347380D02*
X94797286Y-100347380D01*
X94797286Y-100347380D02*
X94702048Y-100299761D01*
X94702048Y-100299761D02*
X94654429Y-100252142D01*
X94654429Y-100252142D02*
X94606810Y-100156904D01*
X94606810Y-100156904D02*
X94606810Y-99347380D01*
X94178238Y-100299761D02*
X94035381Y-100347380D01*
X94035381Y-100347380D02*
X93797286Y-100347380D01*
X93797286Y-100347380D02*
X93702048Y-100299761D01*
X93702048Y-100299761D02*
X93654429Y-100252142D01*
X93654429Y-100252142D02*
X93606810Y-100156904D01*
X93606810Y-100156904D02*
X93606810Y-100061666D01*
X93606810Y-100061666D02*
X93654429Y-99966428D01*
X93654429Y-99966428D02*
X93702048Y-99918809D01*
X93702048Y-99918809D02*
X93797286Y-99871190D01*
X93797286Y-99871190D02*
X93987762Y-99823571D01*
X93987762Y-99823571D02*
X94083000Y-99775952D01*
X94083000Y-99775952D02*
X94130619Y-99728333D01*
X94130619Y-99728333D02*
X94178238Y-99633095D01*
X94178238Y-99633095D02*
X94178238Y-99537857D01*
X94178238Y-99537857D02*
X94130619Y-99442619D01*
X94130619Y-99442619D02*
X94083000Y-99395000D01*
X94083000Y-99395000D02*
X93987762Y-99347380D01*
X93987762Y-99347380D02*
X93749667Y-99347380D01*
X93749667Y-99347380D02*
X93606810Y-99395000D01*
X92844905Y-99823571D02*
X92702048Y-99871190D01*
X92702048Y-99871190D02*
X92654429Y-99918809D01*
X92654429Y-99918809D02*
X92606810Y-100014047D01*
X92606810Y-100014047D02*
X92606810Y-100156904D01*
X92606810Y-100156904D02*
X92654429Y-100252142D01*
X92654429Y-100252142D02*
X92702048Y-100299761D01*
X92702048Y-100299761D02*
X92797286Y-100347380D01*
X92797286Y-100347380D02*
X93178238Y-100347380D01*
X93178238Y-100347380D02*
X93178238Y-99347380D01*
X93178238Y-99347380D02*
X92844905Y-99347380D01*
X92844905Y-99347380D02*
X92749667Y-99395000D01*
X92749667Y-99395000D02*
X92702048Y-99442619D01*
X92702048Y-99442619D02*
X92654429Y-99537857D01*
X92654429Y-99537857D02*
X92654429Y-99633095D01*
X92654429Y-99633095D02*
X92702048Y-99728333D01*
X92702048Y-99728333D02*
X92749667Y-99775952D01*
X92749667Y-99775952D02*
X92844905Y-99823571D01*
X92844905Y-99823571D02*
X93178238Y-99823571D01*
X91578238Y-100347380D02*
X91578238Y-99347380D01*
X91102048Y-99680714D02*
X91102048Y-100347380D01*
X91102048Y-99775952D02*
X91054429Y-99728333D01*
X91054429Y-99728333D02*
X90959191Y-99680714D01*
X90959191Y-99680714D02*
X90816334Y-99680714D01*
X90816334Y-99680714D02*
X90721096Y-99728333D01*
X90721096Y-99728333D02*
X90673477Y-99823571D01*
X90673477Y-99823571D02*
X90673477Y-100347380D01*
X90340143Y-99680714D02*
X89959191Y-99680714D01*
X90197286Y-99347380D02*
X90197286Y-100204523D01*
X90197286Y-100204523D02*
X90149667Y-100299761D01*
X90149667Y-100299761D02*
X90054429Y-100347380D01*
X90054429Y-100347380D02*
X89959191Y-100347380D01*
X89244905Y-100299761D02*
X89340143Y-100347380D01*
X89340143Y-100347380D02*
X89530619Y-100347380D01*
X89530619Y-100347380D02*
X89625857Y-100299761D01*
X89625857Y-100299761D02*
X89673476Y-100204523D01*
X89673476Y-100204523D02*
X89673476Y-99823571D01*
X89673476Y-99823571D02*
X89625857Y-99728333D01*
X89625857Y-99728333D02*
X89530619Y-99680714D01*
X89530619Y-99680714D02*
X89340143Y-99680714D01*
X89340143Y-99680714D02*
X89244905Y-99728333D01*
X89244905Y-99728333D02*
X89197286Y-99823571D01*
X89197286Y-99823571D02*
X89197286Y-99918809D01*
X89197286Y-99918809D02*
X89673476Y-100014047D01*
X88768714Y-100347380D02*
X88768714Y-99680714D01*
X88768714Y-99871190D02*
X88721095Y-99775952D01*
X88721095Y-99775952D02*
X88673476Y-99728333D01*
X88673476Y-99728333D02*
X88578238Y-99680714D01*
X88578238Y-99680714D02*
X88483000Y-99680714D01*
X88292523Y-99680714D02*
X87911571Y-99680714D01*
X88149666Y-100347380D02*
X88149666Y-99490238D01*
X88149666Y-99490238D02*
X88102047Y-99395000D01*
X88102047Y-99395000D02*
X88006809Y-99347380D01*
X88006809Y-99347380D02*
X87911571Y-99347380D01*
X87149666Y-100347380D02*
X87149666Y-99823571D01*
X87149666Y-99823571D02*
X87197285Y-99728333D01*
X87197285Y-99728333D02*
X87292523Y-99680714D01*
X87292523Y-99680714D02*
X87482999Y-99680714D01*
X87482999Y-99680714D02*
X87578237Y-99728333D01*
X87149666Y-100299761D02*
X87244904Y-100347380D01*
X87244904Y-100347380D02*
X87482999Y-100347380D01*
X87482999Y-100347380D02*
X87578237Y-100299761D01*
X87578237Y-100299761D02*
X87625856Y-100204523D01*
X87625856Y-100204523D02*
X87625856Y-100109285D01*
X87625856Y-100109285D02*
X87578237Y-100014047D01*
X87578237Y-100014047D02*
X87482999Y-99966428D01*
X87482999Y-99966428D02*
X87244904Y-99966428D01*
X87244904Y-99966428D02*
X87149666Y-99918809D01*
X86244904Y-100299761D02*
X86340142Y-100347380D01*
X86340142Y-100347380D02*
X86530618Y-100347380D01*
X86530618Y-100347380D02*
X86625856Y-100299761D01*
X86625856Y-100299761D02*
X86673475Y-100252142D01*
X86673475Y-100252142D02*
X86721094Y-100156904D01*
X86721094Y-100156904D02*
X86721094Y-99871190D01*
X86721094Y-99871190D02*
X86673475Y-99775952D01*
X86673475Y-99775952D02*
X86625856Y-99728333D01*
X86625856Y-99728333D02*
X86530618Y-99680714D01*
X86530618Y-99680714D02*
X86340142Y-99680714D01*
X86340142Y-99680714D02*
X86244904Y-99728333D01*
X85435380Y-100299761D02*
X85530618Y-100347380D01*
X85530618Y-100347380D02*
X85721094Y-100347380D01*
X85721094Y-100347380D02*
X85816332Y-100299761D01*
X85816332Y-100299761D02*
X85863951Y-100204523D01*
X85863951Y-100204523D02*
X85863951Y-99823571D01*
X85863951Y-99823571D02*
X85816332Y-99728333D01*
X85816332Y-99728333D02*
X85721094Y-99680714D01*
X85721094Y-99680714D02*
X85530618Y-99680714D01*
X85530618Y-99680714D02*
X85435380Y-99728333D01*
X85435380Y-99728333D02*
X85387761Y-99823571D01*
X85387761Y-99823571D02*
X85387761Y-99918809D01*
X85387761Y-99918809D02*
X85863951Y-100014047D01*
X95835381Y-101967380D02*
X95835381Y-100967380D01*
X95835381Y-101348333D02*
X95740143Y-101300714D01*
X95740143Y-101300714D02*
X95549667Y-101300714D01*
X95549667Y-101300714D02*
X95454429Y-101348333D01*
X95454429Y-101348333D02*
X95406810Y-101395952D01*
X95406810Y-101395952D02*
X95359191Y-101491190D01*
X95359191Y-101491190D02*
X95359191Y-101776904D01*
X95359191Y-101776904D02*
X95406810Y-101872142D01*
X95406810Y-101872142D02*
X95454429Y-101919761D01*
X95454429Y-101919761D02*
X95549667Y-101967380D01*
X95549667Y-101967380D02*
X95740143Y-101967380D01*
X95740143Y-101967380D02*
X95835381Y-101919761D01*
X95025857Y-101300714D02*
X94787762Y-101967380D01*
X94549667Y-101300714D02*
X94787762Y-101967380D01*
X94787762Y-101967380D02*
X94883000Y-102205476D01*
X94883000Y-102205476D02*
X94930619Y-102253095D01*
X94930619Y-102253095D02*
X95025857Y-102300714D01*
X93568714Y-101967380D02*
X93568714Y-101300714D01*
X93568714Y-101491190D02*
X93521095Y-101395952D01*
X93521095Y-101395952D02*
X93473476Y-101348333D01*
X93473476Y-101348333D02*
X93378238Y-101300714D01*
X93378238Y-101300714D02*
X93283000Y-101300714D01*
X92521095Y-101300714D02*
X92521095Y-102110238D01*
X92521095Y-102110238D02*
X92568714Y-102205476D01*
X92568714Y-102205476D02*
X92616333Y-102253095D01*
X92616333Y-102253095D02*
X92711571Y-102300714D01*
X92711571Y-102300714D02*
X92854428Y-102300714D01*
X92854428Y-102300714D02*
X92949666Y-102253095D01*
X92521095Y-101919761D02*
X92616333Y-101967380D01*
X92616333Y-101967380D02*
X92806809Y-101967380D01*
X92806809Y-101967380D02*
X92902047Y-101919761D01*
X92902047Y-101919761D02*
X92949666Y-101872142D01*
X92949666Y-101872142D02*
X92997285Y-101776904D01*
X92997285Y-101776904D02*
X92997285Y-101491190D01*
X92997285Y-101491190D02*
X92949666Y-101395952D01*
X92949666Y-101395952D02*
X92902047Y-101348333D01*
X92902047Y-101348333D02*
X92806809Y-101300714D01*
X92806809Y-101300714D02*
X92616333Y-101300714D01*
X92616333Y-101300714D02*
X92521095Y-101348333D01*
X91902047Y-101967380D02*
X91997285Y-101919761D01*
X91997285Y-101919761D02*
X92044904Y-101824523D01*
X92044904Y-101824523D02*
X92044904Y-100967380D01*
X91140142Y-101919761D02*
X91235380Y-101967380D01*
X91235380Y-101967380D02*
X91425856Y-101967380D01*
X91425856Y-101967380D02*
X91521094Y-101919761D01*
X91521094Y-101919761D02*
X91568713Y-101824523D01*
X91568713Y-101824523D02*
X91568713Y-101443571D01*
X91568713Y-101443571D02*
X91521094Y-101348333D01*
X91521094Y-101348333D02*
X91425856Y-101300714D01*
X91425856Y-101300714D02*
X91235380Y-101300714D01*
X91235380Y-101300714D02*
X91140142Y-101348333D01*
X91140142Y-101348333D02*
X91092523Y-101443571D01*
X91092523Y-101443571D02*
X91092523Y-101538809D01*
X91092523Y-101538809D02*
X91568713Y-101634047D01*
X90663951Y-101300714D02*
X90663951Y-101967380D01*
X90663951Y-101395952D02*
X90616332Y-101348333D01*
X90616332Y-101348333D02*
X90521094Y-101300714D01*
X90521094Y-101300714D02*
X90378237Y-101300714D01*
X90378237Y-101300714D02*
X90282999Y-101348333D01*
X90282999Y-101348333D02*
X90235380Y-101443571D01*
X90235380Y-101443571D02*
X90235380Y-101967380D01*
X89759189Y-101300714D02*
X89759189Y-101967380D01*
X89759189Y-101395952D02*
X89711570Y-101348333D01*
X89711570Y-101348333D02*
X89616332Y-101300714D01*
X89616332Y-101300714D02*
X89473475Y-101300714D01*
X89473475Y-101300714D02*
X89378237Y-101348333D01*
X89378237Y-101348333D02*
X89330618Y-101443571D01*
X89330618Y-101443571D02*
X89330618Y-101967380D01*
X97440142Y-102682619D02*
X97392523Y-102635000D01*
X97392523Y-102635000D02*
X97297285Y-102587380D01*
X97297285Y-102587380D02*
X97059190Y-102587380D01*
X97059190Y-102587380D02*
X96963952Y-102635000D01*
X96963952Y-102635000D02*
X96916333Y-102682619D01*
X96916333Y-102682619D02*
X96868714Y-102777857D01*
X96868714Y-102777857D02*
X96868714Y-102873095D01*
X96868714Y-102873095D02*
X96916333Y-103015952D01*
X96916333Y-103015952D02*
X97487761Y-103587380D01*
X97487761Y-103587380D02*
X96868714Y-103587380D01*
X96249666Y-102587380D02*
X96154428Y-102587380D01*
X96154428Y-102587380D02*
X96059190Y-102635000D01*
X96059190Y-102635000D02*
X96011571Y-102682619D01*
X96011571Y-102682619D02*
X95963952Y-102777857D01*
X95963952Y-102777857D02*
X95916333Y-102968333D01*
X95916333Y-102968333D02*
X95916333Y-103206428D01*
X95916333Y-103206428D02*
X95963952Y-103396904D01*
X95963952Y-103396904D02*
X96011571Y-103492142D01*
X96011571Y-103492142D02*
X96059190Y-103539761D01*
X96059190Y-103539761D02*
X96154428Y-103587380D01*
X96154428Y-103587380D02*
X96249666Y-103587380D01*
X96249666Y-103587380D02*
X96344904Y-103539761D01*
X96344904Y-103539761D02*
X96392523Y-103492142D01*
X96392523Y-103492142D02*
X96440142Y-103396904D01*
X96440142Y-103396904D02*
X96487761Y-103206428D01*
X96487761Y-103206428D02*
X96487761Y-102968333D01*
X96487761Y-102968333D02*
X96440142Y-102777857D01*
X96440142Y-102777857D02*
X96392523Y-102682619D01*
X96392523Y-102682619D02*
X96344904Y-102635000D01*
X96344904Y-102635000D02*
X96249666Y-102587380D01*
X95535380Y-102682619D02*
X95487761Y-102635000D01*
X95487761Y-102635000D02*
X95392523Y-102587380D01*
X95392523Y-102587380D02*
X95154428Y-102587380D01*
X95154428Y-102587380D02*
X95059190Y-102635000D01*
X95059190Y-102635000D02*
X95011571Y-102682619D01*
X95011571Y-102682619D02*
X94963952Y-102777857D01*
X94963952Y-102777857D02*
X94963952Y-102873095D01*
X94963952Y-102873095D02*
X95011571Y-103015952D01*
X95011571Y-103015952D02*
X95582999Y-103587380D01*
X95582999Y-103587380D02*
X94963952Y-103587380D01*
X94630618Y-102587380D02*
X94011571Y-102587380D01*
X94011571Y-102587380D02*
X94344904Y-102968333D01*
X94344904Y-102968333D02*
X94202047Y-102968333D01*
X94202047Y-102968333D02*
X94106809Y-103015952D01*
X94106809Y-103015952D02*
X94059190Y-103063571D01*
X94059190Y-103063571D02*
X94011571Y-103158809D01*
X94011571Y-103158809D02*
X94011571Y-103396904D01*
X94011571Y-103396904D02*
X94059190Y-103492142D01*
X94059190Y-103492142D02*
X94106809Y-103539761D01*
X94106809Y-103539761D02*
X94202047Y-103587380D01*
X94202047Y-103587380D02*
X94487761Y-103587380D01*
X94487761Y-103587380D02*
X94582999Y-103539761D01*
X94582999Y-103539761D02*
X94630618Y-103492142D01*
X93582999Y-103206428D02*
X92821095Y-103206428D01*
X92154428Y-102587380D02*
X92059190Y-102587380D01*
X92059190Y-102587380D02*
X91963952Y-102635000D01*
X91963952Y-102635000D02*
X91916333Y-102682619D01*
X91916333Y-102682619D02*
X91868714Y-102777857D01*
X91868714Y-102777857D02*
X91821095Y-102968333D01*
X91821095Y-102968333D02*
X91821095Y-103206428D01*
X91821095Y-103206428D02*
X91868714Y-103396904D01*
X91868714Y-103396904D02*
X91916333Y-103492142D01*
X91916333Y-103492142D02*
X91963952Y-103539761D01*
X91963952Y-103539761D02*
X92059190Y-103587380D01*
X92059190Y-103587380D02*
X92154428Y-103587380D01*
X92154428Y-103587380D02*
X92249666Y-103539761D01*
X92249666Y-103539761D02*
X92297285Y-103492142D01*
X92297285Y-103492142D02*
X92344904Y-103396904D01*
X92344904Y-103396904D02*
X92392523Y-103206428D01*
X92392523Y-103206428D02*
X92392523Y-102968333D01*
X92392523Y-102968333D02*
X92344904Y-102777857D01*
X92344904Y-102777857D02*
X92297285Y-102682619D01*
X92297285Y-102682619D02*
X92249666Y-102635000D01*
X92249666Y-102635000D02*
X92154428Y-102587380D01*
X91487761Y-102587380D02*
X90868714Y-102587380D01*
X90868714Y-102587380D02*
X91202047Y-102968333D01*
X91202047Y-102968333D02*
X91059190Y-102968333D01*
X91059190Y-102968333D02*
X90963952Y-103015952D01*
X90963952Y-103015952D02*
X90916333Y-103063571D01*
X90916333Y-103063571D02*
X90868714Y-103158809D01*
X90868714Y-103158809D02*
X90868714Y-103396904D01*
X90868714Y-103396904D02*
X90916333Y-103492142D01*
X90916333Y-103492142D02*
X90963952Y-103539761D01*
X90963952Y-103539761D02*
X91059190Y-103587380D01*
X91059190Y-103587380D02*
X91344904Y-103587380D01*
X91344904Y-103587380D02*
X91440142Y-103539761D01*
X91440142Y-103539761D02*
X91487761Y-103492142D01*
X90440142Y-103206428D02*
X89678238Y-103206428D01*
X88678238Y-103587380D02*
X89249666Y-103587380D01*
X88963952Y-103587380D02*
X88963952Y-102587380D01*
X88963952Y-102587380D02*
X89059190Y-102730238D01*
X89059190Y-102730238D02*
X89154428Y-102825476D01*
X89154428Y-102825476D02*
X89249666Y-102873095D01*
X88344904Y-102587380D02*
X87678238Y-102587380D01*
X87678238Y-102587380D02*
X88106809Y-103587380D01*
%TO.C,JP8*%
X113990333Y-102872380D02*
X113990333Y-103586666D01*
X113990333Y-103586666D02*
X114037952Y-103729523D01*
X114037952Y-103729523D02*
X114133190Y-103824761D01*
X114133190Y-103824761D02*
X114276047Y-103872380D01*
X114276047Y-103872380D02*
X114371285Y-103872380D01*
X113514142Y-103872380D02*
X113514142Y-102872380D01*
X113514142Y-102872380D02*
X113133190Y-102872380D01*
X113133190Y-102872380D02*
X113037952Y-102920000D01*
X113037952Y-102920000D02*
X112990333Y-102967619D01*
X112990333Y-102967619D02*
X112942714Y-103062857D01*
X112942714Y-103062857D02*
X112942714Y-103205714D01*
X112942714Y-103205714D02*
X112990333Y-103300952D01*
X112990333Y-103300952D02*
X113037952Y-103348571D01*
X113037952Y-103348571D02*
X113133190Y-103396190D01*
X113133190Y-103396190D02*
X113514142Y-103396190D01*
X112371285Y-103300952D02*
X112466523Y-103253333D01*
X112466523Y-103253333D02*
X112514142Y-103205714D01*
X112514142Y-103205714D02*
X112561761Y-103110476D01*
X112561761Y-103110476D02*
X112561761Y-103062857D01*
X112561761Y-103062857D02*
X112514142Y-102967619D01*
X112514142Y-102967619D02*
X112466523Y-102920000D01*
X112466523Y-102920000D02*
X112371285Y-102872380D01*
X112371285Y-102872380D02*
X112180809Y-102872380D01*
X112180809Y-102872380D02*
X112085571Y-102920000D01*
X112085571Y-102920000D02*
X112037952Y-102967619D01*
X112037952Y-102967619D02*
X111990333Y-103062857D01*
X111990333Y-103062857D02*
X111990333Y-103110476D01*
X111990333Y-103110476D02*
X112037952Y-103205714D01*
X112037952Y-103205714D02*
X112085571Y-103253333D01*
X112085571Y-103253333D02*
X112180809Y-103300952D01*
X112180809Y-103300952D02*
X112371285Y-103300952D01*
X112371285Y-103300952D02*
X112466523Y-103348571D01*
X112466523Y-103348571D02*
X112514142Y-103396190D01*
X112514142Y-103396190D02*
X112561761Y-103491428D01*
X112561761Y-103491428D02*
X112561761Y-103681904D01*
X112561761Y-103681904D02*
X112514142Y-103777142D01*
X112514142Y-103777142D02*
X112466523Y-103824761D01*
X112466523Y-103824761D02*
X112371285Y-103872380D01*
X112371285Y-103872380D02*
X112180809Y-103872380D01*
X112180809Y-103872380D02*
X112085571Y-103824761D01*
X112085571Y-103824761D02*
X112037952Y-103777142D01*
X112037952Y-103777142D02*
X111990333Y-103681904D01*
X111990333Y-103681904D02*
X111990333Y-103491428D01*
X111990333Y-103491428D02*
X112037952Y-103396190D01*
X112037952Y-103396190D02*
X112085571Y-103348571D01*
X112085571Y-103348571D02*
X112180809Y-103300952D01*
%TO.C,JP7*%
X113990333Y-104142380D02*
X113990333Y-104856666D01*
X113990333Y-104856666D02*
X114037952Y-104999523D01*
X114037952Y-104999523D02*
X114133190Y-105094761D01*
X114133190Y-105094761D02*
X114276047Y-105142380D01*
X114276047Y-105142380D02*
X114371285Y-105142380D01*
X113514142Y-105142380D02*
X113514142Y-104142380D01*
X113514142Y-104142380D02*
X113133190Y-104142380D01*
X113133190Y-104142380D02*
X113037952Y-104190000D01*
X113037952Y-104190000D02*
X112990333Y-104237619D01*
X112990333Y-104237619D02*
X112942714Y-104332857D01*
X112942714Y-104332857D02*
X112942714Y-104475714D01*
X112942714Y-104475714D02*
X112990333Y-104570952D01*
X112990333Y-104570952D02*
X113037952Y-104618571D01*
X113037952Y-104618571D02*
X113133190Y-104666190D01*
X113133190Y-104666190D02*
X113514142Y-104666190D01*
X112609380Y-104142380D02*
X111942714Y-104142380D01*
X111942714Y-104142380D02*
X112371285Y-105142380D01*
%TO.C,JP6*%
X110688333Y-102872380D02*
X110688333Y-103586666D01*
X110688333Y-103586666D02*
X110735952Y-103729523D01*
X110735952Y-103729523D02*
X110831190Y-103824761D01*
X110831190Y-103824761D02*
X110974047Y-103872380D01*
X110974047Y-103872380D02*
X111069285Y-103872380D01*
X110212142Y-103872380D02*
X110212142Y-102872380D01*
X110212142Y-102872380D02*
X109831190Y-102872380D01*
X109831190Y-102872380D02*
X109735952Y-102920000D01*
X109735952Y-102920000D02*
X109688333Y-102967619D01*
X109688333Y-102967619D02*
X109640714Y-103062857D01*
X109640714Y-103062857D02*
X109640714Y-103205714D01*
X109640714Y-103205714D02*
X109688333Y-103300952D01*
X109688333Y-103300952D02*
X109735952Y-103348571D01*
X109735952Y-103348571D02*
X109831190Y-103396190D01*
X109831190Y-103396190D02*
X110212142Y-103396190D01*
X108783571Y-102872380D02*
X108974047Y-102872380D01*
X108974047Y-102872380D02*
X109069285Y-102920000D01*
X109069285Y-102920000D02*
X109116904Y-102967619D01*
X109116904Y-102967619D02*
X109212142Y-103110476D01*
X109212142Y-103110476D02*
X109259761Y-103300952D01*
X109259761Y-103300952D02*
X109259761Y-103681904D01*
X109259761Y-103681904D02*
X109212142Y-103777142D01*
X109212142Y-103777142D02*
X109164523Y-103824761D01*
X109164523Y-103824761D02*
X109069285Y-103872380D01*
X109069285Y-103872380D02*
X108878809Y-103872380D01*
X108878809Y-103872380D02*
X108783571Y-103824761D01*
X108783571Y-103824761D02*
X108735952Y-103777142D01*
X108735952Y-103777142D02*
X108688333Y-103681904D01*
X108688333Y-103681904D02*
X108688333Y-103443809D01*
X108688333Y-103443809D02*
X108735952Y-103348571D01*
X108735952Y-103348571D02*
X108783571Y-103300952D01*
X108783571Y-103300952D02*
X108878809Y-103253333D01*
X108878809Y-103253333D02*
X109069285Y-103253333D01*
X109069285Y-103253333D02*
X109164523Y-103300952D01*
X109164523Y-103300952D02*
X109212142Y-103348571D01*
X109212142Y-103348571D02*
X109259761Y-103443809D01*
%TO.C,JP5*%
X110688333Y-104142380D02*
X110688333Y-104856666D01*
X110688333Y-104856666D02*
X110735952Y-104999523D01*
X110735952Y-104999523D02*
X110831190Y-105094761D01*
X110831190Y-105094761D02*
X110974047Y-105142380D01*
X110974047Y-105142380D02*
X111069285Y-105142380D01*
X110212142Y-105142380D02*
X110212142Y-104142380D01*
X110212142Y-104142380D02*
X109831190Y-104142380D01*
X109831190Y-104142380D02*
X109735952Y-104190000D01*
X109735952Y-104190000D02*
X109688333Y-104237619D01*
X109688333Y-104237619D02*
X109640714Y-104332857D01*
X109640714Y-104332857D02*
X109640714Y-104475714D01*
X109640714Y-104475714D02*
X109688333Y-104570952D01*
X109688333Y-104570952D02*
X109735952Y-104618571D01*
X109735952Y-104618571D02*
X109831190Y-104666190D01*
X109831190Y-104666190D02*
X110212142Y-104666190D01*
X108735952Y-104142380D02*
X109212142Y-104142380D01*
X109212142Y-104142380D02*
X109259761Y-104618571D01*
X109259761Y-104618571D02*
X109212142Y-104570952D01*
X109212142Y-104570952D02*
X109116904Y-104523333D01*
X109116904Y-104523333D02*
X108878809Y-104523333D01*
X108878809Y-104523333D02*
X108783571Y-104570952D01*
X108783571Y-104570952D02*
X108735952Y-104618571D01*
X108735952Y-104618571D02*
X108688333Y-104713809D01*
X108688333Y-104713809D02*
X108688333Y-104951904D01*
X108688333Y-104951904D02*
X108735952Y-105047142D01*
X108735952Y-105047142D02*
X108783571Y-105094761D01*
X108783571Y-105094761D02*
X108878809Y-105142380D01*
X108878809Y-105142380D02*
X109116904Y-105142380D01*
X109116904Y-105142380D02*
X109212142Y-105094761D01*
X109212142Y-105094761D02*
X109259761Y-105047142D01*
%TO.C,JP4*%
X113990333Y-98046380D02*
X113990333Y-98760666D01*
X113990333Y-98760666D02*
X114037952Y-98903523D01*
X114037952Y-98903523D02*
X114133190Y-98998761D01*
X114133190Y-98998761D02*
X114276047Y-99046380D01*
X114276047Y-99046380D02*
X114371285Y-99046380D01*
X113514142Y-99046380D02*
X113514142Y-98046380D01*
X113514142Y-98046380D02*
X113133190Y-98046380D01*
X113133190Y-98046380D02*
X113037952Y-98094000D01*
X113037952Y-98094000D02*
X112990333Y-98141619D01*
X112990333Y-98141619D02*
X112942714Y-98236857D01*
X112942714Y-98236857D02*
X112942714Y-98379714D01*
X112942714Y-98379714D02*
X112990333Y-98474952D01*
X112990333Y-98474952D02*
X113037952Y-98522571D01*
X113037952Y-98522571D02*
X113133190Y-98570190D01*
X113133190Y-98570190D02*
X113514142Y-98570190D01*
X112085571Y-98379714D02*
X112085571Y-99046380D01*
X112323666Y-97998761D02*
X112561761Y-98713047D01*
X112561761Y-98713047D02*
X111942714Y-98713047D01*
%TO.C,JP3*%
X113990333Y-99316380D02*
X113990333Y-100030666D01*
X113990333Y-100030666D02*
X114037952Y-100173523D01*
X114037952Y-100173523D02*
X114133190Y-100268761D01*
X114133190Y-100268761D02*
X114276047Y-100316380D01*
X114276047Y-100316380D02*
X114371285Y-100316380D01*
X113514142Y-100316380D02*
X113514142Y-99316380D01*
X113514142Y-99316380D02*
X113133190Y-99316380D01*
X113133190Y-99316380D02*
X113037952Y-99364000D01*
X113037952Y-99364000D02*
X112990333Y-99411619D01*
X112990333Y-99411619D02*
X112942714Y-99506857D01*
X112942714Y-99506857D02*
X112942714Y-99649714D01*
X112942714Y-99649714D02*
X112990333Y-99744952D01*
X112990333Y-99744952D02*
X113037952Y-99792571D01*
X113037952Y-99792571D02*
X113133190Y-99840190D01*
X113133190Y-99840190D02*
X113514142Y-99840190D01*
X112609380Y-99316380D02*
X111990333Y-99316380D01*
X111990333Y-99316380D02*
X112323666Y-99697333D01*
X112323666Y-99697333D02*
X112180809Y-99697333D01*
X112180809Y-99697333D02*
X112085571Y-99744952D01*
X112085571Y-99744952D02*
X112037952Y-99792571D01*
X112037952Y-99792571D02*
X111990333Y-99887809D01*
X111990333Y-99887809D02*
X111990333Y-100125904D01*
X111990333Y-100125904D02*
X112037952Y-100221142D01*
X112037952Y-100221142D02*
X112085571Y-100268761D01*
X112085571Y-100268761D02*
X112180809Y-100316380D01*
X112180809Y-100316380D02*
X112466523Y-100316380D01*
X112466523Y-100316380D02*
X112561761Y-100268761D01*
X112561761Y-100268761D02*
X112609380Y-100221142D01*
%TO.C,JP2*%
X110688333Y-98046380D02*
X110688333Y-98760666D01*
X110688333Y-98760666D02*
X110735952Y-98903523D01*
X110735952Y-98903523D02*
X110831190Y-98998761D01*
X110831190Y-98998761D02*
X110974047Y-99046380D01*
X110974047Y-99046380D02*
X111069285Y-99046380D01*
X110212142Y-99046380D02*
X110212142Y-98046380D01*
X110212142Y-98046380D02*
X109831190Y-98046380D01*
X109831190Y-98046380D02*
X109735952Y-98094000D01*
X109735952Y-98094000D02*
X109688333Y-98141619D01*
X109688333Y-98141619D02*
X109640714Y-98236857D01*
X109640714Y-98236857D02*
X109640714Y-98379714D01*
X109640714Y-98379714D02*
X109688333Y-98474952D01*
X109688333Y-98474952D02*
X109735952Y-98522571D01*
X109735952Y-98522571D02*
X109831190Y-98570190D01*
X109831190Y-98570190D02*
X110212142Y-98570190D01*
X109259761Y-98141619D02*
X109212142Y-98094000D01*
X109212142Y-98094000D02*
X109116904Y-98046380D01*
X109116904Y-98046380D02*
X108878809Y-98046380D01*
X108878809Y-98046380D02*
X108783571Y-98094000D01*
X108783571Y-98094000D02*
X108735952Y-98141619D01*
X108735952Y-98141619D02*
X108688333Y-98236857D01*
X108688333Y-98236857D02*
X108688333Y-98332095D01*
X108688333Y-98332095D02*
X108735952Y-98474952D01*
X108735952Y-98474952D02*
X109307380Y-99046380D01*
X109307380Y-99046380D02*
X108688333Y-99046380D01*
%TO.C,JP1*%
X110688333Y-99316380D02*
X110688333Y-100030666D01*
X110688333Y-100030666D02*
X110735952Y-100173523D01*
X110735952Y-100173523D02*
X110831190Y-100268761D01*
X110831190Y-100268761D02*
X110974047Y-100316380D01*
X110974047Y-100316380D02*
X111069285Y-100316380D01*
X110212142Y-100316380D02*
X110212142Y-99316380D01*
X110212142Y-99316380D02*
X109831190Y-99316380D01*
X109831190Y-99316380D02*
X109735952Y-99364000D01*
X109735952Y-99364000D02*
X109688333Y-99411619D01*
X109688333Y-99411619D02*
X109640714Y-99506857D01*
X109640714Y-99506857D02*
X109640714Y-99649714D01*
X109640714Y-99649714D02*
X109688333Y-99744952D01*
X109688333Y-99744952D02*
X109735952Y-99792571D01*
X109735952Y-99792571D02*
X109831190Y-99840190D01*
X109831190Y-99840190D02*
X110212142Y-99840190D01*
X108688333Y-100316380D02*
X109259761Y-100316380D01*
X108974047Y-100316380D02*
X108974047Y-99316380D01*
X108974047Y-99316380D02*
X109069285Y-99459238D01*
X109069285Y-99459238D02*
X109164523Y-99554476D01*
X109164523Y-99554476D02*
X109259761Y-99602095D01*
%TO.C,REF\u002A\u002A*%
G36*
X93120275Y-104656931D02*
G01*
X93204095Y-105101555D01*
X93822667Y-105356551D01*
X94193707Y-105104246D01*
X94267144Y-105054506D01*
X94364499Y-104989218D01*
X94448787Y-104933454D01*
X94515631Y-104890078D01*
X94560654Y-104861953D01*
X94579478Y-104851942D01*
X94591039Y-104859061D01*
X94625596Y-104888894D01*
X94677894Y-104937852D01*
X94743500Y-105001440D01*
X94817983Y-105075163D01*
X94896913Y-105154525D01*
X94975856Y-105235031D01*
X95050384Y-105312185D01*
X95116063Y-105381493D01*
X95168463Y-105438457D01*
X95203153Y-105478584D01*
X95215701Y-105497377D01*
X95212782Y-105505451D01*
X95192571Y-105541469D01*
X95155663Y-105600744D01*
X95105050Y-105678630D01*
X95043725Y-105770481D01*
X94974679Y-105871650D01*
X94936787Y-105926826D01*
X94871606Y-106022884D01*
X94815723Y-106106717D01*
X94772117Y-106173777D01*
X94743769Y-106219519D01*
X94733657Y-106239396D01*
X94733823Y-106240497D01*
X94742743Y-106265694D01*
X94763206Y-106317147D01*
X94792360Y-106388135D01*
X94827353Y-106471935D01*
X94865332Y-106561828D01*
X94903445Y-106651091D01*
X94938839Y-106733003D01*
X94968662Y-106800843D01*
X94990061Y-106847890D01*
X95000184Y-106867422D01*
X95006174Y-106869155D01*
X95042566Y-106876969D01*
X95107427Y-106889915D01*
X95195565Y-106906979D01*
X95301787Y-106927151D01*
X95420902Y-106949418D01*
X95483683Y-106961223D01*
X95598912Y-106983748D01*
X95699662Y-107004550D01*
X95780426Y-107022435D01*
X95835698Y-107036208D01*
X95859971Y-107044674D01*
X95864331Y-107053066D01*
X95871563Y-107094072D01*
X95877246Y-107162368D01*
X95881382Y-107251529D01*
X95883977Y-107355128D01*
X95885036Y-107466740D01*
X95884561Y-107579938D01*
X95882559Y-107688296D01*
X95879033Y-107785389D01*
X95873987Y-107864790D01*
X95867427Y-107920072D01*
X95859356Y-107944810D01*
X95854458Y-107947600D01*
X95817930Y-107959569D01*
X95754565Y-107975405D01*
X95671686Y-107993374D01*
X95576618Y-108011741D01*
X95544542Y-108017591D01*
X95396393Y-108044798D01*
X95279961Y-108066663D01*
X95191209Y-108084093D01*
X95126103Y-108097996D01*
X95080606Y-108109277D01*
X95050682Y-108118843D01*
X95032294Y-108127601D01*
X95021407Y-108136457D01*
X95020142Y-108137943D01*
X95002338Y-108168931D01*
X94975994Y-108225634D01*
X94943661Y-108301399D01*
X94907893Y-108389574D01*
X94871244Y-108483507D01*
X94836266Y-108576547D01*
X94805513Y-108662041D01*
X94781538Y-108733336D01*
X94766895Y-108783782D01*
X94764136Y-108806726D01*
X94765981Y-108809703D01*
X94785075Y-108838493D01*
X94820984Y-108891595D01*
X94870378Y-108964117D01*
X94929927Y-109051167D01*
X94996303Y-109147854D01*
X95014520Y-109174456D01*
X95078577Y-109269875D01*
X95133937Y-109355212D01*
X95177439Y-109425405D01*
X95205924Y-109475394D01*
X95216232Y-109500116D01*
X95214011Y-109506616D01*
X95190858Y-109538644D01*
X95145177Y-109590945D01*
X95080241Y-109659999D01*
X94999319Y-109742286D01*
X94905685Y-109834286D01*
X94852165Y-109885781D01*
X94767542Y-109965983D01*
X94693475Y-110034678D01*
X94633941Y-110088252D01*
X94592917Y-110123085D01*
X94574381Y-110135563D01*
X94561646Y-110130938D01*
X94522436Y-110109057D01*
X94465495Y-110073273D01*
X94398250Y-110028117D01*
X94350438Y-109995165D01*
X94254985Y-109929727D01*
X94153125Y-109860228D01*
X94060088Y-109797075D01*
X93877832Y-109673800D01*
X93724841Y-109756520D01*
X93688817Y-109775613D01*
X93623303Y-109808272D01*
X93572640Y-109830819D01*
X93545564Y-109839226D01*
X93536703Y-109828430D01*
X93514699Y-109787323D01*
X93482199Y-109719549D01*
X93441010Y-109629409D01*
X93392942Y-109521205D01*
X93339802Y-109399237D01*
X93283399Y-109267808D01*
X93225542Y-109131218D01*
X93168038Y-108993767D01*
X93112697Y-108859758D01*
X93061326Y-108733491D01*
X93015735Y-108619268D01*
X92977732Y-108521390D01*
X92949124Y-108444157D01*
X92931721Y-108391871D01*
X92927331Y-108368833D01*
X92927628Y-108368160D01*
X92948077Y-108346863D01*
X92990850Y-108313508D01*
X93047117Y-108275011D01*
X93064877Y-108263256D01*
X93200014Y-108151735D01*
X93311856Y-108018906D01*
X93397755Y-107870298D01*
X93455062Y-107711440D01*
X93481131Y-107547860D01*
X93473313Y-107385088D01*
X93441644Y-107240315D01*
X93384782Y-107094124D01*
X93301888Y-106963703D01*
X93188131Y-106839813D01*
X93143433Y-106800235D01*
X92998935Y-106702723D01*
X92842838Y-106637050D01*
X92679667Y-106602630D01*
X92513943Y-106598874D01*
X92350192Y-106625194D01*
X92192936Y-106681003D01*
X92046698Y-106765714D01*
X91916004Y-106878737D01*
X91805374Y-107019487D01*
X91784105Y-107054342D01*
X91711810Y-107213655D01*
X91673415Y-107379552D01*
X91667914Y-107547737D01*
X91694301Y-107713913D01*
X91751570Y-107873784D01*
X91838717Y-108023053D01*
X91954736Y-108157423D01*
X92098622Y-108272599D01*
X92103294Y-108275702D01*
X92158964Y-108314933D01*
X92200689Y-108348286D01*
X92219746Y-108368833D01*
X92217342Y-108384941D01*
X92202391Y-108431844D01*
X92175881Y-108504539D01*
X92139620Y-108598725D01*
X92095416Y-108710098D01*
X92045076Y-108834358D01*
X91990407Y-108967202D01*
X91933218Y-109104327D01*
X91875316Y-109241432D01*
X91818510Y-109374215D01*
X91764606Y-109498374D01*
X91715412Y-109609606D01*
X91672737Y-109703609D01*
X91638387Y-109776082D01*
X91614171Y-109822722D01*
X91601897Y-109839226D01*
X91591689Y-109836991D01*
X91551586Y-109820926D01*
X91492318Y-109792759D01*
X91422619Y-109756520D01*
X91269629Y-109673800D01*
X91087373Y-109797075D01*
X91033527Y-109833579D01*
X90933374Y-109901784D01*
X90833525Y-109970098D01*
X90749211Y-110028117D01*
X90702679Y-110059736D01*
X90642200Y-110099020D01*
X90597357Y-110125912D01*
X90575455Y-110135883D01*
X90566045Y-110131650D01*
X90532031Y-110105721D01*
X90479595Y-110060070D01*
X90413301Y-109999186D01*
X90337713Y-109927561D01*
X90257396Y-109849683D01*
X90176913Y-109770045D01*
X90100829Y-109693135D01*
X90033707Y-109623445D01*
X89980112Y-109565464D01*
X89944608Y-109523684D01*
X89931759Y-109502593D01*
X89932500Y-109498581D01*
X89947793Y-109465920D01*
X89980462Y-109409412D01*
X90027350Y-109334163D01*
X90085301Y-109245275D01*
X90151157Y-109147854D01*
X90169627Y-109120982D01*
X90234482Y-109026423D01*
X90291609Y-108942827D01*
X90337678Y-108875084D01*
X90369359Y-108828086D01*
X90383324Y-108806726D01*
X90383668Y-108805811D01*
X90379546Y-108779678D01*
X90363807Y-108726740D01*
X90339004Y-108653647D01*
X90307689Y-108567052D01*
X90272417Y-108473608D01*
X90235740Y-108379965D01*
X90200212Y-108292777D01*
X90168386Y-108218695D01*
X90142816Y-108164371D01*
X90126053Y-108136457D01*
X90124374Y-108134724D01*
X90112372Y-108125956D01*
X90092103Y-108117115D01*
X90059529Y-108107292D01*
X90010616Y-108095583D01*
X89941327Y-108081080D01*
X89847625Y-108062876D01*
X89725476Y-108040066D01*
X89570842Y-108011741D01*
X89538770Y-108005780D01*
X89446893Y-107987352D01*
X89369607Y-107969892D01*
X89314236Y-107955133D01*
X89288105Y-107944810D01*
X89283733Y-107936197D01*
X89276445Y-107894826D01*
X89270669Y-107826241D01*
X89266410Y-107736868D01*
X89263673Y-107633135D01*
X89262462Y-107521465D01*
X89262782Y-107408287D01*
X89264636Y-107300026D01*
X89268030Y-107203108D01*
X89272967Y-107123959D01*
X89279452Y-107069006D01*
X89287489Y-107044674D01*
X89295696Y-107041079D01*
X89336519Y-107029748D01*
X89405524Y-107013722D01*
X89497203Y-106994195D01*
X89606050Y-106972362D01*
X89726558Y-106949418D01*
X89792357Y-106937159D01*
X89905135Y-106915901D01*
X90002207Y-106897287D01*
X90078382Y-106882328D01*
X90128469Y-106872036D01*
X90147276Y-106867422D01*
X90147983Y-106866471D01*
X90159961Y-106842310D01*
X90182794Y-106791694D01*
X90213630Y-106721338D01*
X90249613Y-106637958D01*
X90287891Y-106548270D01*
X90325609Y-106458989D01*
X90359913Y-106376832D01*
X90387949Y-106308513D01*
X90406864Y-106260748D01*
X90413803Y-106240254D01*
X90410742Y-106233043D01*
X90390372Y-106198728D01*
X90353422Y-106140970D01*
X90302860Y-106064299D01*
X90241657Y-105973248D01*
X90172781Y-105872350D01*
X90134994Y-105817093D01*
X90069782Y-105720215D01*
X90013871Y-105635193D01*
X89970241Y-105566662D01*
X89941877Y-105519260D01*
X89931759Y-105497623D01*
X89938790Y-105485887D01*
X89968197Y-105450818D01*
X90016441Y-105397745D01*
X90079093Y-105331164D01*
X90151725Y-105255574D01*
X90229908Y-105175472D01*
X90309214Y-105095354D01*
X90385213Y-105019718D01*
X90453478Y-104953062D01*
X90509580Y-104899882D01*
X90549090Y-104864676D01*
X90567579Y-104851942D01*
X90577843Y-104856893D01*
X90615530Y-104879857D01*
X90676348Y-104918938D01*
X90755913Y-104971272D01*
X90849843Y-105033996D01*
X90953754Y-105104246D01*
X91324794Y-105356551D01*
X91634080Y-105229053D01*
X91943365Y-105101555D01*
X92027186Y-104656931D01*
X92111006Y-104212307D01*
X93036454Y-104212307D01*
X93120275Y-104656931D01*
G37*
D11*
X93120275Y-104656931D02*
X93204095Y-105101555D01*
X93822667Y-105356551D01*
X94193707Y-105104246D01*
X94267144Y-105054506D01*
X94364499Y-104989218D01*
X94448787Y-104933454D01*
X94515631Y-104890078D01*
X94560654Y-104861953D01*
X94579478Y-104851942D01*
X94591039Y-104859061D01*
X94625596Y-104888894D01*
X94677894Y-104937852D01*
X94743500Y-105001440D01*
X94817983Y-105075163D01*
X94896913Y-105154525D01*
X94975856Y-105235031D01*
X95050384Y-105312185D01*
X95116063Y-105381493D01*
X95168463Y-105438457D01*
X95203153Y-105478584D01*
X95215701Y-105497377D01*
X95212782Y-105505451D01*
X95192571Y-105541469D01*
X95155663Y-105600744D01*
X95105050Y-105678630D01*
X95043725Y-105770481D01*
X94974679Y-105871650D01*
X94936787Y-105926826D01*
X94871606Y-106022884D01*
X94815723Y-106106717D01*
X94772117Y-106173777D01*
X94743769Y-106219519D01*
X94733657Y-106239396D01*
X94733823Y-106240497D01*
X94742743Y-106265694D01*
X94763206Y-106317147D01*
X94792360Y-106388135D01*
X94827353Y-106471935D01*
X94865332Y-106561828D01*
X94903445Y-106651091D01*
X94938839Y-106733003D01*
X94968662Y-106800843D01*
X94990061Y-106847890D01*
X95000184Y-106867422D01*
X95006174Y-106869155D01*
X95042566Y-106876969D01*
X95107427Y-106889915D01*
X95195565Y-106906979D01*
X95301787Y-106927151D01*
X95420902Y-106949418D01*
X95483683Y-106961223D01*
X95598912Y-106983748D01*
X95699662Y-107004550D01*
X95780426Y-107022435D01*
X95835698Y-107036208D01*
X95859971Y-107044674D01*
X95864331Y-107053066D01*
X95871563Y-107094072D01*
X95877246Y-107162368D01*
X95881382Y-107251529D01*
X95883977Y-107355128D01*
X95885036Y-107466740D01*
X95884561Y-107579938D01*
X95882559Y-107688296D01*
X95879033Y-107785389D01*
X95873987Y-107864790D01*
X95867427Y-107920072D01*
X95859356Y-107944810D01*
X95854458Y-107947600D01*
X95817930Y-107959569D01*
X95754565Y-107975405D01*
X95671686Y-107993374D01*
X95576618Y-108011741D01*
X95544542Y-108017591D01*
X95396393Y-108044798D01*
X95279961Y-108066663D01*
X95191209Y-108084093D01*
X95126103Y-108097996D01*
X95080606Y-108109277D01*
X95050682Y-108118843D01*
X95032294Y-108127601D01*
X95021407Y-108136457D01*
X95020142Y-108137943D01*
X95002338Y-108168931D01*
X94975994Y-108225634D01*
X94943661Y-108301399D01*
X94907893Y-108389574D01*
X94871244Y-108483507D01*
X94836266Y-108576547D01*
X94805513Y-108662041D01*
X94781538Y-108733336D01*
X94766895Y-108783782D01*
X94764136Y-108806726D01*
X94765981Y-108809703D01*
X94785075Y-108838493D01*
X94820984Y-108891595D01*
X94870378Y-108964117D01*
X94929927Y-109051167D01*
X94996303Y-109147854D01*
X95014520Y-109174456D01*
X95078577Y-109269875D01*
X95133937Y-109355212D01*
X95177439Y-109425405D01*
X95205924Y-109475394D01*
X95216232Y-109500116D01*
X95214011Y-109506616D01*
X95190858Y-109538644D01*
X95145177Y-109590945D01*
X95080241Y-109659999D01*
X94999319Y-109742286D01*
X94905685Y-109834286D01*
X94852165Y-109885781D01*
X94767542Y-109965983D01*
X94693475Y-110034678D01*
X94633941Y-110088252D01*
X94592917Y-110123085D01*
X94574381Y-110135563D01*
X94561646Y-110130938D01*
X94522436Y-110109057D01*
X94465495Y-110073273D01*
X94398250Y-110028117D01*
X94350438Y-109995165D01*
X94254985Y-109929727D01*
X94153125Y-109860228D01*
X94060088Y-109797075D01*
X93877832Y-109673800D01*
X93724841Y-109756520D01*
X93688817Y-109775613D01*
X93623303Y-109808272D01*
X93572640Y-109830819D01*
X93545564Y-109839226D01*
X93536703Y-109828430D01*
X93514699Y-109787323D01*
X93482199Y-109719549D01*
X93441010Y-109629409D01*
X93392942Y-109521205D01*
X93339802Y-109399237D01*
X93283399Y-109267808D01*
X93225542Y-109131218D01*
X93168038Y-108993767D01*
X93112697Y-108859758D01*
X93061326Y-108733491D01*
X93015735Y-108619268D01*
X92977732Y-108521390D01*
X92949124Y-108444157D01*
X92931721Y-108391871D01*
X92927331Y-108368833D01*
X92927628Y-108368160D01*
X92948077Y-108346863D01*
X92990850Y-108313508D01*
X93047117Y-108275011D01*
X93064877Y-108263256D01*
X93200014Y-108151735D01*
X93311856Y-108018906D01*
X93397755Y-107870298D01*
X93455062Y-107711440D01*
X93481131Y-107547860D01*
X93473313Y-107385088D01*
X93441644Y-107240315D01*
X93384782Y-107094124D01*
X93301888Y-106963703D01*
X93188131Y-106839813D01*
X93143433Y-106800235D01*
X92998935Y-106702723D01*
X92842838Y-106637050D01*
X92679667Y-106602630D01*
X92513943Y-106598874D01*
X92350192Y-106625194D01*
X92192936Y-106681003D01*
X92046698Y-106765714D01*
X91916004Y-106878737D01*
X91805374Y-107019487D01*
X91784105Y-107054342D01*
X91711810Y-107213655D01*
X91673415Y-107379552D01*
X91667914Y-107547737D01*
X91694301Y-107713913D01*
X91751570Y-107873784D01*
X91838717Y-108023053D01*
X91954736Y-108157423D01*
X92098622Y-108272599D01*
X92103294Y-108275702D01*
X92158964Y-108314933D01*
X92200689Y-108348286D01*
X92219746Y-108368833D01*
X92217342Y-108384941D01*
X92202391Y-108431844D01*
X92175881Y-108504539D01*
X92139620Y-108598725D01*
X92095416Y-108710098D01*
X92045076Y-108834358D01*
X91990407Y-108967202D01*
X91933218Y-109104327D01*
X91875316Y-109241432D01*
X91818510Y-109374215D01*
X91764606Y-109498374D01*
X91715412Y-109609606D01*
X91672737Y-109703609D01*
X91638387Y-109776082D01*
X91614171Y-109822722D01*
X91601897Y-109839226D01*
X91591689Y-109836991D01*
X91551586Y-109820926D01*
X91492318Y-109792759D01*
X91422619Y-109756520D01*
X91269629Y-109673800D01*
X91087373Y-109797075D01*
X91033527Y-109833579D01*
X90933374Y-109901784D01*
X90833525Y-109970098D01*
X90749211Y-110028117D01*
X90702679Y-110059736D01*
X90642200Y-110099020D01*
X90597357Y-110125912D01*
X90575455Y-110135883D01*
X90566045Y-110131650D01*
X90532031Y-110105721D01*
X90479595Y-110060070D01*
X90413301Y-109999186D01*
X90337713Y-109927561D01*
X90257396Y-109849683D01*
X90176913Y-109770045D01*
X90100829Y-109693135D01*
X90033707Y-109623445D01*
X89980112Y-109565464D01*
X89944608Y-109523684D01*
X89931759Y-109502593D01*
X89932500Y-109498581D01*
X89947793Y-109465920D01*
X89980462Y-109409412D01*
X90027350Y-109334163D01*
X90085301Y-109245275D01*
X90151157Y-109147854D01*
X90169627Y-109120982D01*
X90234482Y-109026423D01*
X90291609Y-108942827D01*
X90337678Y-108875084D01*
X90369359Y-108828086D01*
X90383324Y-108806726D01*
X90383668Y-108805811D01*
X90379546Y-108779678D01*
X90363807Y-108726740D01*
X90339004Y-108653647D01*
X90307689Y-108567052D01*
X90272417Y-108473608D01*
X90235740Y-108379965D01*
X90200212Y-108292777D01*
X90168386Y-108218695D01*
X90142816Y-108164371D01*
X90126053Y-108136457D01*
X90124374Y-108134724D01*
X90112372Y-108125956D01*
X90092103Y-108117115D01*
X90059529Y-108107292D01*
X90010616Y-108095583D01*
X89941327Y-108081080D01*
X89847625Y-108062876D01*
X89725476Y-108040066D01*
X89570842Y-108011741D01*
X89538770Y-108005780D01*
X89446893Y-107987352D01*
X89369607Y-107969892D01*
X89314236Y-107955133D01*
X89288105Y-107944810D01*
X89283733Y-107936197D01*
X89276445Y-107894826D01*
X89270669Y-107826241D01*
X89266410Y-107736868D01*
X89263673Y-107633135D01*
X89262462Y-107521465D01*
X89262782Y-107408287D01*
X89264636Y-107300026D01*
X89268030Y-107203108D01*
X89272967Y-107123959D01*
X89279452Y-107069006D01*
X89287489Y-107044674D01*
X89295696Y-107041079D01*
X89336519Y-107029748D01*
X89405524Y-107013722D01*
X89497203Y-106994195D01*
X89606050Y-106972362D01*
X89726558Y-106949418D01*
X89792357Y-106937159D01*
X89905135Y-106915901D01*
X90002207Y-106897287D01*
X90078382Y-106882328D01*
X90128469Y-106872036D01*
X90147276Y-106867422D01*
X90147983Y-106866471D01*
X90159961Y-106842310D01*
X90182794Y-106791694D01*
X90213630Y-106721338D01*
X90249613Y-106637958D01*
X90287891Y-106548270D01*
X90325609Y-106458989D01*
X90359913Y-106376832D01*
X90387949Y-106308513D01*
X90406864Y-106260748D01*
X90413803Y-106240254D01*
X90410742Y-106233043D01*
X90390372Y-106198728D01*
X90353422Y-106140970D01*
X90302860Y-106064299D01*
X90241657Y-105973248D01*
X90172781Y-105872350D01*
X90134994Y-105817093D01*
X90069782Y-105720215D01*
X90013871Y-105635193D01*
X89970241Y-105566662D01*
X89941877Y-105519260D01*
X89931759Y-105497623D01*
X89938790Y-105485887D01*
X89968197Y-105450818D01*
X90016441Y-105397745D01*
X90079093Y-105331164D01*
X90151725Y-105255574D01*
X90229908Y-105175472D01*
X90309214Y-105095354D01*
X90385213Y-105019718D01*
X90453478Y-104953062D01*
X90509580Y-104899882D01*
X90549090Y-104864676D01*
X90567579Y-104851942D01*
X90577843Y-104856893D01*
X90615530Y-104879857D01*
X90676348Y-104918938D01*
X90755913Y-104971272D01*
X90849843Y-105033996D01*
X90953754Y-105104246D01*
X91324794Y-105356551D01*
X91634080Y-105229053D01*
X91943365Y-105101555D01*
X92027186Y-104656931D01*
X92111006Y-104212307D01*
X93036454Y-104212307D01*
X93120275Y-104656931D01*
D12*
%TO.C,JP8*%
X113857000Y-105553000D02*
X112457000Y-105553000D01*
X112457000Y-107553000D02*
X113857000Y-107553000D01*
X111757000Y-106253000D02*
X111757000Y-106853000D01*
X114557000Y-106853000D02*
X114557000Y-106253000D01*
X111757000Y-106853000D02*
G75*
G03*
X112457000Y-107553000I699999J-1D01*
G01*
X112457000Y-105553000D02*
G75*
G03*
X111757000Y-106253000I-1J-699999D01*
G01*
X114557000Y-106253000D02*
G75*
G03*
X113857000Y-105553000I-700000J0D01*
G01*
X113857000Y-107553000D02*
G75*
G03*
X114557000Y-106853000I0J700000D01*
G01*
%TO.C,JP7*%
X113857000Y-108093000D02*
X112457000Y-108093000D01*
X112457000Y-110093000D02*
X113857000Y-110093000D01*
X111757000Y-108793000D02*
X111757000Y-109393000D01*
X114557000Y-109393000D02*
X114557000Y-108793000D01*
X111757000Y-109393000D02*
G75*
G03*
X112457000Y-110093000I699999J-1D01*
G01*
X112457000Y-108093000D02*
G75*
G03*
X111757000Y-108793000I-1J-699999D01*
G01*
X114557000Y-108793000D02*
G75*
G03*
X113857000Y-108093000I-700000J0D01*
G01*
X113857000Y-110093000D02*
G75*
G03*
X114557000Y-109393000I0J700000D01*
G01*
%TO.C,JP6*%
X108455000Y-106853000D02*
G75*
G03*
X109155000Y-107553000I700000J0D01*
G01*
X110555000Y-107553000D02*
G75*
G03*
X111255000Y-106853000I1J699999D01*
G01*
X111255000Y-106253000D02*
G75*
G03*
X110555000Y-105553000I-699999J1D01*
G01*
X109155000Y-105553000D02*
G75*
G03*
X108455000Y-106253000I0J-700000D01*
G01*
X111255000Y-106853000D02*
X111255000Y-106253000D01*
X108455000Y-106253000D02*
X108455000Y-106853000D01*
X109155000Y-107553000D02*
X110555000Y-107553000D01*
X110555000Y-105553000D02*
X109155000Y-105553000D01*
%TO.C,JP5*%
X108455000Y-109393000D02*
G75*
G03*
X109155000Y-110093000I700000J0D01*
G01*
X110555000Y-110093000D02*
G75*
G03*
X111255000Y-109393000I1J699999D01*
G01*
X111255000Y-108793000D02*
G75*
G03*
X110555000Y-108093000I-699999J1D01*
G01*
X109155000Y-108093000D02*
G75*
G03*
X108455000Y-108793000I0J-700000D01*
G01*
X111255000Y-109393000D02*
X111255000Y-108793000D01*
X108455000Y-108793000D02*
X108455000Y-109393000D01*
X109155000Y-110093000D02*
X110555000Y-110093000D01*
X110555000Y-108093000D02*
X109155000Y-108093000D01*
%TO.C,JP4*%
X114557000Y-93807000D02*
G75*
G03*
X113857000Y-93107000I-700000J0D01*
G01*
X112457000Y-93107000D02*
G75*
G03*
X111757000Y-93807000I-1J-699999D01*
G01*
X111757000Y-94407000D02*
G75*
G03*
X112457000Y-95107000I699999J-1D01*
G01*
X113857000Y-95107000D02*
G75*
G03*
X114557000Y-94407000I0J700000D01*
G01*
X111757000Y-93807000D02*
X111757000Y-94407000D01*
X114557000Y-94407000D02*
X114557000Y-93807000D01*
X113857000Y-93107000D02*
X112457000Y-93107000D01*
X112457000Y-95107000D02*
X113857000Y-95107000D01*
%TO.C,JP3*%
X112457000Y-97647000D02*
X113857000Y-97647000D01*
X113857000Y-95647000D02*
X112457000Y-95647000D01*
X114557000Y-96947000D02*
X114557000Y-96347000D01*
X111757000Y-96347000D02*
X111757000Y-96947000D01*
X113857000Y-97647000D02*
G75*
G03*
X114557000Y-96947000I0J700000D01*
G01*
X111757000Y-96947000D02*
G75*
G03*
X112457000Y-97647000I699999J-1D01*
G01*
X112457000Y-95647000D02*
G75*
G03*
X111757000Y-96347000I-1J-699999D01*
G01*
X114557000Y-96347000D02*
G75*
G03*
X113857000Y-95647000I-700000J0D01*
G01*
%TO.C,JP2*%
X109155000Y-95107000D02*
X110555000Y-95107000D01*
X110555000Y-93107000D02*
X109155000Y-93107000D01*
X111255000Y-94407000D02*
X111255000Y-93807000D01*
X108455000Y-93807000D02*
X108455000Y-94407000D01*
X111255000Y-93807000D02*
G75*
G03*
X110555000Y-93107000I-699999J1D01*
G01*
X110555000Y-95107000D02*
G75*
G03*
X111255000Y-94407000I1J699999D01*
G01*
X108455000Y-94407000D02*
G75*
G03*
X109155000Y-95107000I700000J0D01*
G01*
X109155000Y-93107000D02*
G75*
G03*
X108455000Y-93807000I0J-700000D01*
G01*
%TO.C,JP1*%
X109155000Y-95647000D02*
G75*
G03*
X108455000Y-96347000I0J-700000D01*
G01*
X108455000Y-96947000D02*
G75*
G03*
X109155000Y-97647000I700000J0D01*
G01*
X110555000Y-97647000D02*
G75*
G03*
X111255000Y-96947000I1J699999D01*
G01*
X111255000Y-96347000D02*
G75*
G03*
X110555000Y-95647000I-699999J1D01*
G01*
X108455000Y-96347000D02*
X108455000Y-96947000D01*
X111255000Y-96947000D02*
X111255000Y-96347000D01*
X110555000Y-95647000D02*
X109155000Y-95647000D01*
X109155000Y-97647000D02*
X110555000Y-97647000D01*
%TD*%
D13*
%TO.C,J1*%
X106222800Y-109098080D03*
X103720900Y-96603820D03*
X106220260Y-101600000D03*
X106222800Y-94101920D03*
X103720900Y-106596180D03*
%TD*%
%LPC*%
D14*
%TO.C,JP8*%
X112507000Y-106553000D03*
D15*
X113807000Y-106553000D03*
%TD*%
D14*
%TO.C,JP7*%
X112507000Y-109093000D03*
D15*
X113807000Y-109093000D03*
%TD*%
D16*
%TO.C,JP6*%
X109205000Y-106553000D03*
D17*
X110505000Y-106553000D03*
%TD*%
D16*
%TO.C,JP5*%
X109205000Y-109093000D03*
D17*
X110505000Y-109093000D03*
%TD*%
D15*
%TO.C,JP4*%
X113807000Y-94107000D03*
D14*
X112507000Y-94107000D03*
%TD*%
%TO.C,JP3*%
X112507000Y-96647000D03*
D15*
X113807000Y-96647000D03*
%TD*%
D17*
%TO.C,JP2*%
X110505000Y-94107000D03*
D16*
X109205000Y-94107000D03*
%TD*%
%TO.C,JP1*%
X109205000Y-96647000D03*
D17*
X110505000Y-96647000D03*
%TD*%
D18*
%TO.C,J2*%
X78067500Y-95580000D03*
X78067500Y-107620000D03*
D19*
X80777500Y-102850000D03*
X80777500Y-100350000D03*
X82777500Y-100350000D03*
D20*
X82777499Y-102849999D03*
%TD*%
D13*
%TO.C,J1*%
X106222800Y-109098080D03*
X103720900Y-96603820D03*
X106220260Y-101600000D03*
X106222800Y-94101920D03*
X103720900Y-106596180D03*
X116217700Y-96598740D03*
X116217700Y-106601260D03*
%TD*%
D21*
%TO.C,C5*%
X87122000Y-110247401D03*
D22*
X87121999Y-108247400D03*
%TD*%
M02*
